<svg width="115" height="113" viewBox="0 0 115 113" fill="none" xmlns="http://www.w3.org/2000/svg">
<g filter="url(#filter0_f_18_35)">
<ellipse cx="57.5" cy="56.5" rx="29.5" ry="28.5" fill="#5D3A2B" fill-opacity="0.34"/>
</g>
<path d="M64.2292 50.9174C64.2292 49.1035 66.6418 48.6227 67.2819 50.3199C68.8302 54.4255 69.9584 58.0982 69.9584 60.0839C69.9584 66.4122 64.8283 71.5422 58.5 71.5422C52.1718 71.5422 47.0417 66.4122 47.0417 60.0839C47.0417 57.9506 48.3439 53.8699 50.0703 49.3973C52.3066 43.6036 53.4248 40.7067 54.8051 40.5506C55.2468 40.5007 55.7286 40.5905 56.1227 40.7961C57.3542 41.4387 57.3542 44.5983 57.3542 50.9174C57.3542 52.8159 58.8932 54.3549 60.7917 54.3549C62.6902 54.3549 64.2292 52.8159 64.2292 50.9174Z" stroke="white" stroke-width="2"/>
<path d="M56.2083 71.5416L55.6061 70.036C55.4371 69.6135 55.3525 69.4022 55.2857 69.2002C54.5882 67.0936 54.9309 64.781 56.2093 62.9672C56.3319 62.7933 56.474 62.6156 56.7583 62.2603V62.2603C56.9213 62.0566 57.0028 61.9548 57.0753 61.8812C57.8586 61.086 59.1413 61.086 59.9247 61.8812C59.9972 61.9548 60.0786 62.0566 60.2416 62.2603V62.2603C60.5259 62.6156 60.668 62.7933 60.7906 62.9672C62.069 64.781 62.4117 67.0936 61.7143 69.2002C61.6474 69.4022 61.5629 69.6135 61.3939 70.036L60.7916 71.5416" stroke="white" stroke-width="2"/>
<defs>
<filter id="filter0_f_18_35" x="0.799999" y="0.799999" width="113.4" height="111.4" filterUnits="userSpaceOnUse" color-interpolation-filters="sRGB">
<feFlood flood-opacity="0" result="BackgroundImageFix"/>
<feBlend mode="normal" in="SourceGraphic" in2="BackgroundImageFix" result="shape"/>
<feGaussianBlur stdDeviation="13.6" result="effect1_foregroundBlur_18_35"/>
</filter>
</defs>
</svg>
