<svg width="115" height="112" viewBox="0 0 115 112" fill="none" xmlns="http://www.w3.org/2000/svg">
<g filter="url(#filter0_f_18_106)">
<ellipse cx="29.5" cy="28.5" rx="29.5" ry="28.5" transform="matrix(-1 0 0 1 87 27.5)" fill="#5D3A2B" fill-opacity="0.34"/>
</g>
<ellipse cx="57.6604" cy="56" rx="2" ry="1.5" fill="white"/>
<path d="M63.6604 56C63.6604 60.4553 62.8923 64.4416 61.6896 67.2767C61.0874 68.6962 60.3959 69.7805 59.6791 70.4952C58.9663 71.2058 58.2851 71.5 57.6604 71.5C57.0357 71.5 56.3545 71.2058 55.6417 70.4952C54.9249 69.7805 54.2334 68.6962 53.6312 67.2767C52.4285 64.4416 51.6604 60.4553 51.6604 56C51.6604 51.5447 52.4285 47.5584 53.6312 44.7233C54.2334 43.3038 54.9249 42.2195 55.6417 41.5048C56.3545 40.7942 57.0357 40.5 57.6604 40.5C58.2851 40.5 58.9663 40.7942 59.6791 41.5048C60.3959 42.2195 61.0874 43.3038 61.6896 44.7233C62.8923 47.5584 63.6604 51.5447 63.6604 56Z" stroke="white" stroke-width="2"/>
<path d="M60.6753 61.1537C56.7573 63.4158 52.8825 64.8038 49.8105 65.2465C48.2715 65.4682 46.9865 65.4449 46.0173 65.214C45.0509 64.9838 44.4912 64.5738 44.2112 64.0887C43.9311 63.6036 43.8559 62.9139 44.1397 61.9619C44.4243 61.007 45.0466 59.8826 46.0082 58.6607C47.9275 56.2215 51.067 53.5598 54.985 51.2978C58.9029 49.0358 62.7777 47.6477 65.8498 47.2051C67.3888 46.9834 68.6737 47.0066 69.643 47.2375C70.6094 47.4678 71.169 47.8777 71.4491 48.3629C71.7292 48.848 71.8044 49.5376 71.5206 50.4897C71.236 51.4445 70.6136 52.5689 69.6521 53.7909C67.7328 56.2301 64.5933 58.8917 60.6753 61.1537Z" stroke="white" stroke-width="2"/>
<path d="M60.6753 51.2979C56.7573 49.0359 52.8825 47.6478 49.8105 47.2052C48.2715 46.9835 46.9865 47.0067 46.0173 47.2376C45.0509 47.4679 44.4912 47.8778 44.2112 48.363C43.9311 48.8481 43.8559 49.5377 44.1397 50.4898C44.4243 51.4446 45.0466 52.5691 46.0082 53.791C47.9275 56.2302 51.067 58.8918 54.985 61.1539C58.9029 63.4159 62.7777 64.804 65.8498 65.2466C67.3888 65.4683 68.6737 65.4451 69.643 65.2141C70.6094 64.9839 71.169 64.5739 71.4491 64.0888C71.7292 63.6037 71.8044 62.914 71.5206 61.962C71.236 61.0071 70.6136 59.8827 69.6521 58.6608C67.7328 56.2216 64.5933 53.5599 60.6753 51.2979Z" stroke="white" stroke-width="2"/>
<defs>
<filter id="filter0_f_18_106" x="0.799999" y="0.299999" width="113.4" height="111.4" filterUnits="userSpaceOnUse" color-interpolation-filters="sRGB">
<feFlood flood-opacity="0" result="BackgroundImageFix"/>
<feBlend mode="normal" in="SourceGraphic" in2="BackgroundImageFix" result="shape"/>
<feGaussianBlur stdDeviation="13.6" result="effect1_foregroundBlur_18_106"/>
</filter>
</defs>
</svg>
