<svg width="24" height="24" viewBox="0 0 24 24" fill="none" xmlns="http://www.w3.org/2000/svg">
<path fill-rule="evenodd" clip-rule="evenodd" d="M16.131 5.53401C16.212 5.51501 16.29 5.50101 16.405 5.50101L16.407 5.49901C16.4281 5.51968 16.454 5.53732 16.4802 5.55511C16.5211 5.58293 16.5626 5.61114 16.587 5.65201C16.6025 5.67296 16.6122 5.69413 16.6219 5.71541C16.6335 5.74083 16.6452 5.76642 16.667 5.79201C16.667 5.95301 16.621 6.05901 16.527 6.12501L16.513 6.14001C16.4852 6.0855 16.4596 6.03073 16.4339 5.97583C16.4096 5.92396 16.3852 5.87198 16.359 5.82001C16.3329 5.78435 16.3033 5.75119 16.2737 5.71799C16.226 5.66461 16.1783 5.61113 16.145 5.54701H16.131V5.53401ZM4.843 18.695H5.77H5.773C5.729 17.025 5.587 15.18 5.345 13.165H4.25L2.903 17.229H2.895L1.56 13.165H0.41C0.192 14.885 0.055 16.729 0 18.695H0.845C0.865464 17.2234 0.930493 15.7527 1.04 14.285H1.05L2.45 18.695H3.155L4.565 14.285H4.573C4.72685 15.7504 4.81693 17.2218 4.843 18.695ZM8.295 19.075C8.911 18.148 9.409 16.66 9.787 14.615H8.907C8.75 15.871 8.472 17.034 8.072 18.098C8.1 17.885 8.031 17.511 7.867 16.975L7.14 14.615H6.23L7.244 17.771C7.397 18.245 7.474 18.56 7.474 18.715C7.474 18.938 7.376 19.14 7.179 19.32C7.015 19.467 6.8 19.542 6.532 19.542C6.386 19.542 6.256 19.533 6.146 19.516V20.01C6.372 20.102 6.559 20.148 6.712 20.148C7.285 20.148 7.813 19.791 8.295 19.075ZM21.927 11.499C22.274 11.351 22.689 11.297 23.224 11.311C23.2084 11.2054 23.0012 11.0802 22.8591 10.9943C22.8195 10.9704 22.785 10.9496 22.761 10.933L22.7532 10.9275C22.5396 10.7752 22.3182 10.6173 22.091 10.479C22.0179 10.4345 21.9124 10.3967 21.8111 10.3604C21.7462 10.3371 21.683 10.3144 21.631 10.291C21.5777 10.2694 21.5049 10.2478 21.4263 10.2244C21.2394 10.1689 21.0194 10.1035 20.949 10.005C20.7634 9.76394 20.634 9.4717 20.505 9.18027L20.473 9.10801C20.4112 8.96924 20.3436 8.82782 20.2754 8.68515C20.1867 8.49986 20.0971 8.31245 20.018 8.12601C19.9862 8.0564 19.9617 7.99038 19.9375 7.92533C19.906 7.84086 19.8752 7.75801 19.83 7.67101C19.3486 6.73856 18.6293 5.94992 17.745 5.38501C17.458 5.20501 17.138 5.03901 16.783 4.92501C16.6758 4.89338 16.5568 4.88819 16.4365 4.88294C16.3324 4.8784 16.2273 4.87381 16.128 4.85201H15.988C15.9076 4.82991 15.8358 4.76564 15.7689 4.70578C15.7359 4.67626 15.704 4.6478 15.673 4.62601C15.466 4.48601 15.258 4.39201 15.011 4.29201C14.924 4.25201 14.677 4.15801 14.589 4.23001C14.537 4.24501 14.509 4.26601 14.495 4.32001C14.442 4.40001 14.489 4.52101 14.522 4.59401C14.5887 4.73462 14.6723 4.83775 14.7581 4.94339C14.8022 4.99778 14.8468 5.05283 14.89 5.11401C14.9078 5.1388 14.9262 5.16412 14.9449 5.18987C15.0462 5.32926 15.1565 5.48098 15.224 5.62701C15.3171 5.82716 15.3833 6.03877 15.4493 6.24957C15.5065 6.43267 15.5636 6.61516 15.638 6.78901C15.7037 6.93892 15.7841 7.08195 15.878 7.21601C15.9059 7.25531 15.9423 7.29025 15.9791 7.32548C16.0386 7.38258 16.099 7.44047 16.125 7.51901C16.1901 7.62812 16.0696 7.94144 15.9972 8.12965C15.9807 8.17258 15.9667 8.209 15.958 8.23501C15.785 8.78201 15.818 9.54501 16.018 10.02C16.0228 10.0312 16.0276 10.0426 16.0324 10.054C16.0351 10.0605 16.0378 10.0669 16.0406 10.0734C16.113 10.2463 16.1912 10.4329 16.385 10.48C16.3885 10.4763 16.3901 10.474 16.3911 10.4726C16.3918 10.4717 16.3922 10.4711 16.3928 10.4707C16.3936 10.4701 16.3947 10.4699 16.3973 10.4694C16.4 10.4688 16.4044 10.468 16.412 10.466C16.4224 10.3865 16.4311 10.3076 16.4397 10.2299C16.4709 9.94806 16.5005 9.68176 16.6 9.45601C16.6477 9.33849 16.7269 9.24356 16.8039 9.15118C16.8449 9.10207 16.8853 9.05368 16.92 9.00301C16.9626 9.02843 16.9781 9.08616 16.994 9.14541C17.0032 9.17938 17.0124 9.21385 17.027 9.24301L17.0642 9.33088C17.1411 9.51291 17.2224 9.70538 17.317 9.88601C17.5324 10.3117 17.7822 10.719 18.064 11.104C18.1702 11.2462 18.2872 11.3799 18.414 11.504C18.4326 11.5202 18.4516 11.5342 18.4702 11.5479C18.5056 11.5739 18.5398 11.599 18.568 11.637H18.583V11.657C18.4567 11.6103 18.3595 11.5101 18.2647 11.4123C18.2094 11.3553 18.1549 11.2992 18.096 11.255C17.795 11.028 17.435 10.688 17.229 10.36C17.1659 10.2221 17.0985 10.089 17.03 9.95364C17.0051 9.90451 16.98 9.85508 16.955 9.80501V9.79001C16.9286 9.82476 16.9246 9.8591 16.9197 9.90049C16.9171 9.92341 16.9141 9.94849 16.907 9.97701C16.8826 10.072 16.8704 10.1706 16.8587 10.2659C16.829 10.5066 16.8019 10.726 16.587 10.812C16.246 10.953 15.991 10.585 15.884 10.419C15.544 9.86201 15.45 8.92601 15.69 8.16901C15.709 8.11068 15.722 8.04841 15.735 7.98626C15.7591 7.87152 15.783 7.75722 15.844 7.66901C15.8299 7.58839 15.7837 7.54658 15.7386 7.50569C15.7165 7.48572 15.6947 7.46596 15.677 7.44201C15.583 7.31601 15.503 7.16901 15.43 7.02901C15.3217 6.8163 15.2368 6.57189 15.1548 6.33603C15.1308 6.26695 15.107 6.19861 15.083 6.13201C15.0599 6.07263 15.0451 6.01373 15.0303 5.95543C15.0151 5.89493 14.9999 5.83508 14.976 5.77601C14.9099 5.6338 14.7993 5.48955 14.698 5.35737C14.6767 5.32967 14.6559 5.30251 14.636 5.27601C14.6103 5.23949 14.5765 5.19725 14.5389 5.1502C14.3499 4.91377 14.0639 4.55597 14.214 4.19401C14.494 3.50601 15.478 4.02601 15.858 4.26601C15.8955 4.29033 15.9349 4.32514 15.9757 4.36119C16.0372 4.41556 16.1019 4.47275 16.168 4.50101C16.2597 4.50487 16.3518 4.51027 16.444 4.51567C16.5186 4.52005 16.5933 4.52443 16.668 4.52801L16.7603 4.54964C17.0391 4.61466 17.3014 4.67585 17.524 4.80201C18.673 5.47601 19.42 6.16501 20.11 7.30201C20.2038 7.45521 20.2675 7.61697 20.3325 7.78209C20.3694 7.87563 20.4066 7.97025 20.45 8.06501C20.6182 8.45917 20.8006 8.84709 20.997 9.22801C21.0183 9.27171 21.0387 9.31667 21.0592 9.36182C21.1203 9.49643 21.1821 9.63267 21.272 9.74201C21.3027 9.78671 21.3726 9.81049 21.4394 9.83325C21.4728 9.8446 21.5054 9.8557 21.532 9.86901C21.6196 9.91421 21.7143 9.95501 21.8098 9.99614C21.9551 10.0588 22.1023 10.1221 22.229 10.203C22.6178 10.4483 22.9869 10.7235 23.333 11.026C23.3996 11.0862 23.4564 11.1611 23.5133 11.2361C23.5624 11.3007 23.6115 11.3655 23.667 11.421V11.481C23.56 11.515 23.453 11.548 23.347 11.575C23.231 11.6041 23.1217 11.6157 23.0133 11.6272C22.9021 11.6389 22.792 11.6506 22.677 11.681L22.6378 11.6923C22.5054 11.7304 22.3497 11.7752 22.217 11.787L22.23 11.801C22.2957 11.9838 22.5728 12.1438 22.7982 12.2739C22.8749 12.3181 22.9457 12.3589 23 12.396C23.2644 12.5847 23.4987 12.8123 23.695 13.071C23.7279 13.1039 23.761 13.1353 23.7942 13.1668C23.8277 13.1985 23.8614 13.2304 23.895 13.264C23.9165 13.296 23.9309 13.3325 23.9451 13.3684C23.9606 13.4078 23.9759 13.4466 24 13.478V13.498C23.9422 13.4783 23.9022 13.4368 23.863 13.396C23.8384 13.3705 23.8141 13.3453 23.786 13.326C23.7206 13.2815 23.655 13.2333 23.5896 13.1851C23.5079 13.1251 23.4265 13.0652 23.346 13.013C23.216 12.9309 23.0755 12.866 22.9346 12.8008C22.7992 12.7382 22.6634 12.6754 22.536 12.597C22.389 12.503 22.249 12.397 22.109 12.287C21.981 12.193 21.843 12.014 21.763 11.88C21.7431 11.8487 21.7302 11.8151 21.7178 11.7827C21.7008 11.7385 21.6847 11.6966 21.653 11.666C21.6635 11.571 21.7556 11.5471 21.8432 11.5243C21.8728 11.5166 21.9018 11.5091 21.927 11.499Z" fill="#4479A1"/>
<path d="M13.842 17.163C13.842 17.633 13.67 18.019 13.326 18.319C12.982 18.619 12.523 18.769 11.942 18.769C11.399 18.769 10.878 18.597 10.369 18.254L10.606 17.778C11.044 17.998 11.439 18.106 11.796 18.106C12.128 18.106 12.389 18.033 12.579 17.886C12.674 17.8144 12.7506 17.7214 12.8028 17.6145C12.8549 17.5076 12.881 17.3899 12.879 17.271C12.879 16.941 12.649 16.661 12.231 16.426C11.843 16.213 11.068 15.769 11.068 15.769C10.646 15.462 10.436 15.133 10.436 14.592C10.436 14.142 10.593 13.782 10.906 13.507C11.221 13.229 11.626 13.092 12.126 13.092C12.638 13.092 13.106 13.228 13.526 13.502L13.313 13.978C12.9774 13.8306 12.6155 13.7524 12.249 13.748C11.966 13.748 11.747 13.816 11.595 13.954C11.5179 14.0179 11.4557 14.0979 11.4128 14.1885C11.37 14.279 11.3475 14.3778 11.347 14.478C11.347 14.806 11.581 15.088 12.013 15.328C12.406 15.543 13.2 15.998 13.2 15.998C13.633 16.303 13.848 16.628 13.848 17.166L13.842 17.163Z" fill="#FFA518"/>
<path fill-rule="evenodd" clip-rule="evenodd" d="M18.792 18.83L17.776 18.33C17.866 18.254 17.953 18.172 18.031 18.08C18.464 17.574 18.679 16.822 18.679 15.827C18.679 13.997 17.961 13.081 16.524 13.081C15.82 13.081 15.27 13.313 14.874 13.778C14.444 14.286 14.228 15.034 14.228 16.023C14.228 16.995 14.418 17.709 14.802 18.163C15.152 18.573 15.679 18.778 16.385 18.778C16.649 18.778 16.891 18.745 17.11 18.68L18.435 19.452L18.795 18.83H18.792ZM15.163 15.852C15.163 16.648 15.275 17.228 15.5 17.588L15.498 17.593C15.706 17.926 16.031 18.093 16.476 18.093C17.322 18.093 17.746 17.389 17.746 15.985C17.746 15.198 17.634 14.624 17.41 14.262C17.203 13.929 16.876 13.762 16.433 13.762C15.587 13.762 15.163 14.459 15.163 15.852Z" fill="#FFA518"/>
<path d="M22.112 18.695H19.482V13.165H20.367V18.015H22.112V18.695Z" fill="#FFA518"/>
</svg>
