<svg id="icon" xmlns="http://www.w3.org/2000/svg" width="1000" height="1000"><defs><style>.cls-1{fill:#362723;fill-rule:evenodd}</style></defs><g id="body"><path id="head" class="cls-1" d="M499.787 5.532C776.875 5.532 1001.5 226.913 1001.5 500S776.875 994.468 499.787 994.468-1.926 773.087-1.926 500 222.7 5.532 499.787 5.532Z"/></g><path id="face" d="M499.787 189.71c173.88 0 314.837 138.921 314.837 310.29S673.667 810.29 499.787 810.29 184.95 671.369 184.95 500s140.958-310.29 314.837-310.29Z" style="fill:#fdfdfe;fill-rule:evenodd"/><g id="eyes"><path id="left" class="cls-1" d="M323.54 443.625c31.591 0 57.2 25.24 57.2 56.375s-25.61 56.375-57.2 56.375-57.2-25.24-57.2-56.375 25.609-56.375 57.2-56.375Z"/><path id="right" class="cls-1" d="M685.787 443.625c31.592 0 57.2 25.24 57.2 56.375s-25.609 56.375-57.2 56.375-57.2-25.24-57.2-56.375 25.613-56.375 57.2-56.375Z"/></g><g id="mouth"><path id="top" class="cls-1" d="m496.165 474.643 88.75 83.317h-177.5Z"/><path id="down" class="cls-1" d="m494.353 661.2-85.232-103.839h177.5Z"/></g></svg>