<svg width="24" height="24" viewBox="0 0 24 24" fill="none" xmlns="http://www.w3.org/2000/svg">
<path d="M11.146 0H15.07V18.166C13.057 18.548 11.579 18.701 9.97404 18.701C5.18304 18.701 2.68604 16.535 2.68604 12.381C2.68604 8.379 5.33604 5.781 9.43904 5.781C10.076 5.781 10.56 5.831 11.146 5.984V0ZM11.146 9.143C10.7195 8.99891 10.2712 8.92989 9.82104 8.939C7.83304 8.939 6.68703 10.162 6.68703 12.304C6.68703 14.394 7.78303 15.54 9.79603 15.54C10.229 15.54 10.586 15.515 11.146 15.438V9.143ZM21.314 6.06V15.158C21.314 18.292 21.085 19.796 20.397 21.095C19.76 22.344 18.919 23.134 17.186 24L13.542 22.267C15.275 21.452 16.116 20.737 16.651 19.642C17.212 18.521 17.39 17.221 17.39 13.807V6.059L21.314 6.06ZM17.39 0.021H21.314V4.047H17.39V0.021Z" fill="#0F6947"/>
</svg>
