<svg width="24" height="24" viewBox="0 0 24 24" fill="none" xmlns="http://www.w3.org/2000/svg">
<g clip-path="url(#clip0_23_225)">
<path d="M22.922 7.02701L22.819 6.79701L22.65 6.98501C22.242 7.44901 21.722 7.80501 21.145 8.02101L20.986 8.08201L21.052 8.23701C21.5484 9.428 21.8033 10.7057 21.802 11.996C21.802 17.401 17.405 21.802 11.996 21.802C6.58698 21.802 2.19398 17.405 2.19398 12C2.19398 6.59501 6.59598 2.19401 12 2.19401C13.467 2.19401 14.883 2.51301 16.2 3.14101L16.355 3.21601L16.421 3.06101C16.6649 2.4933 17.0447 1.99431 17.527 1.60801L17.724 1.44901L17.499 1.33201C15.7999 0.453055 13.914 -0.0034992 12.001 0.00100964C5.38198 0.00100964 0.000976562 5.38201 0.000976562 12.001C0.000976562 18.62 5.38198 24.001 12.001 24.001C18.62 24.001 24.001 18.62 24.001 12.001C24.001 10.271 23.64 8.59801 22.923 7.02801L22.922 7.02701ZM12 6.53001C10.5497 6.5316 9.15934 7.10841 8.13386 8.13389C7.10838 9.15937 6.53157 10.5498 6.52998 12C6.53157 13.4503 7.10838 14.8406 8.13386 15.8661C9.15934 16.8916 10.5497 17.4684 12 17.47C13.4502 17.4684 14.8406 16.8916 15.8661 15.8661C16.8916 14.8406 17.4684 13.4503 17.47 12C17.4676 10.55 16.8905 9.16007 15.8652 8.13476C14.8399 7.10946 13.45 6.53239 12 6.53001ZM22.345 4.52301C22.345 4.85053 22.2805 5.17484 22.1551 5.47742C22.0298 5.78001 21.8461 6.05494 21.6145 6.28653C21.3829 6.51812 21.108 6.70183 20.8054 6.82717C20.5028 6.9525 20.1785 7.01701 19.851 7.01701C19.5235 7.01701 19.1992 6.9525 18.8966 6.82717C18.594 6.70183 18.319 6.51812 18.0875 6.28653C17.8559 6.05494 17.6722 5.78001 17.5468 5.47742C17.4215 5.17484 17.357 4.85053 17.357 4.52301C17.357 3.86156 17.6197 3.2272 18.0875 2.75949C18.5552 2.29177 19.1895 2.02901 19.851 2.02901C20.5124 2.02901 21.1468 2.29177 21.6145 2.75949C22.0822 3.2272 22.345 3.86156 22.345 4.52301Z" fill="#3880FF"/>
</g>
<defs>
<clipPath id="clip0_23_225">
<rect width="24" height="24" fill="white"/>
</clipPath>
</defs>
</svg>
