<svg width="24" height="24" viewBox="0 0 24 24" fill="none" xmlns="http://www.w3.org/2000/svg">
<g clip-path="url(#clip0_23_105)">
<path d="M16.792 11.923C16.905 11.966 17.018 12.002 17.126 12.051C17.576 12.254 17.841 12.604 17.874 13.095C17.915 13.729 17.918 14.366 17.876 15C17.827 15.732 17.151 16.292 16.393 16.271C15.658 16.25 15.024 15.651 14.996 14.93C14.979 14.489 14.993 14.046 14.99 13.604C14.989 13.365 14.987 13.362 14.745 13.361C13.382 13.36 12.019 13.369 10.656 13.358C9.76797 13.351 9.23497 13.84 9.18497 14.818C9.16597 15.198 9.08497 15.545 8.82797 15.836C8.43097 16.287 7.92997 16.437 7.35597 16.302C6.80197 16.171 6.48897 15.78 6.32097 15.254C6.20397 14.887 6.26497 14.517 6.33297 14.16C6.67397 12.363 7.69897 11.154 9.45797 10.605C9.81497 10.493 10.189 10.439 10.563 10.439C11.503 10.44 12.444 10.44 13.384 10.438C13.512 10.438 13.641 10.426 13.769 10.417C14.471 10.366 14.935 9.906 14.989 9.065C14.993 9.001 14.989 8.936 14.99 8.872C15.001 8.084 15.595 7.476 16.383 7.447C17.17 7.418 17.821 7.974 17.876 8.765C17.952 9.848 17.611 10.811 16.963 11.672C16.903 11.751 16.819 11.816 16.792 11.923ZM8.24897 10.436C7.99097 10.428 7.67797 10.454 7.36697 10.401C6.83097 10.311 6.49097 10.011 6.34697 9.485C6.18997 8.912 6.24997 8.388 6.69797 7.96C7.15397 7.526 7.69397 7.4 8.28497 7.645C8.80497 7.861 9.14397 8.376 9.17497 8.938C9.19997 9.382 9.17797 9.828 9.18197 10.272C9.18297 10.388 9.13897 10.439 9.02097 10.437C8.78097 10.434 8.54197 10.436 8.24897 10.436ZM21.682 0H2.31797C1.10197 0 0.115967 0.986 0.115967 2.202V21.519C0.115967 22.889 1.22697 24 2.59697 24H21.404C22.774 24 23.885 22.889 23.885 21.519V2.202C23.884 0.986 22.898 0 21.682 0ZM20.125 12.473C20.644 13.277 20.858 14.163 20.802 15.13C20.694 17.016 19.389 18.604 17.552 19.046C14.967 19.669 12.986 18.123 12.319 16.252C12.21 15.948 12.159 15.63 12.095 15.267C12.027 15.681 11.98 16.056 11.831 16.401C11.134 18.018 9.94697 19.004 8.16597 19.2C6.06197 19.432 4.11797 18.133 3.53397 16.116C3.28397 15.253 3.35897 14.369 3.46597 13.491C3.54597 12.838 3.78697 12.223 4.09797 11.643C4.15497 11.537 4.15497 11.459 4.08797 11.358C3.52697 10.513 3.30897 9.581 3.38797 8.574C3.42997 8.035 3.55997 7.52 3.80497 7.038C4.51997 5.626 6.08997 4.427 8.19297 4.626C10.042 4.801 11.755 6.396 12.023 8.19C12.036 8.28 12.062 8.368 12.091 8.501C12.135 8.26 12.167 8.062 12.209 7.865C12.553 6.235 14.149 4.53 16.41 4.508C18.702 4.487 20.4 6.284 20.72 7.954C20.89 8.842 20.809 9.73 20.617 10.617C20.505 11.134 20.307 11.625 20.093 12.109C20.034 12.245 20.043 12.345 20.125 12.473Z" fill="#FB7A24"/>
</g>
<defs>
<clipPath id="clip0_23_105">
<rect width="24" height="24" fill="white"/>
</clipPath>
</defs>
</svg>
